solid XBMCTableTop
facet normal 0.0 0.0 -1.0
outer loop
vertex 49.6977186206917 -41.4529129377866 0.0
vertex -37.0022813793083 -156.652912937787 0.0
vertex -37.0022813793083 -41.4529129377866 0.0
endloop
endfacet
facet normal 0.0 0.0 -1.0
outer loop
vertex -37.0022813793083 -156.652912937787 0.0
vertex 49.6977186206917 -41.4529129377866 0.0
vertex 49.6977186206917 -156.652912937787 0.0
endloop
endfacet
facet normal 0.0 0.0 1.0
outer loop
vertex 49.6977186206917 -156.652912937787 2.0
vertex -37.0022813793083 -41.4529129377866 2.0
vertex -37.0022813793083 -156.652912937787 2.0
endloop
endfacet
facet normal 0.0 0.0 1.0
outer loop
vertex -37.0022813793083 -41.4529129377866 2.0
vertex 49.6977186206917 -156.652912937787 2.0
vertex 49.6977186206917 -41.4529129377866 2.0
endloop
endfacet
facet normal -0.0 1.0 0.0
outer loop
vertex -37.0022813793083 -41.4529129377866 2.0
vertex 49.6977186206917 -41.4529129377866 0.0
vertex -37.0022813793083 -41.4529129377866 0.0
endloop
endfacet
facet normal -0.0 1.0 0.0
outer loop
vertex 49.6977186206917 -41.4529129377866 0.0
vertex -37.0022813793083 -41.4529129377866 2.0
vertex 49.6977186206917 -41.4529129377866 2.0
endloop
endfacet
facet normal 1.0 0.0 0.0
outer loop
vertex 49.6977186206917 -41.4529129377866 0.0
vertex 49.6977186206917 -156.652912937787 2.0
vertex 49.6977186206917 -156.652912937787 0.0
endloop
endfacet
facet normal 1.0 0.0 0.0
outer loop
vertex 49.6977186206917 -156.652912937787 2.0
vertex 49.6977186206917 -41.4529129377866 0.0
vertex 49.6977186206917 -41.4529129377866 2.0
endloop
endfacet
facet normal -0.0 -1.0 -0.0
outer loop
vertex 49.6977186206917 -156.652912937787 2.0
vertex -37.0022813793083 -156.652912937787 0.0
vertex 49.6977186206917 -156.652912937787 0.0
endloop
endfacet
facet normal -0.0 -1.0 -0.0
outer loop
vertex -37.0022813793083 -156.652912937787 0.0
vertex 49.6977186206917 -156.652912937787 2.0
vertex -37.0022813793083 -156.652912937787 2.0
endloop
endfacet
facet normal -1.0 0.0 0.0
outer loop
vertex -37.0022813793083 -41.4529129377866 2.0
vertex -37.0022813793083 -156.652912937787 0.0
vertex -37.0022813793083 -156.652912937787 2.0
endloop
endfacet
facet normal -1.0 0.0 0.0
outer loop
vertex -37.0022813793083 -156.652912937787 0.0
vertex -37.0022813793083 -41.4529129377866 2.0
vertex -37.0022813793083 -41.4529129377866 0.0
endloop
endfacet
endsolid XBMCTableTop
